@startuml

skinparam classAttributeIconSize 0

class BleakwindBuffet.Data.Combo {
	- drink : BleakwindBuffet.Data.Drinks.Drink
	- entree : BleakwindBuffet.Data.Entrees.Entree
	- side : BleakwindBuffet.Data.Sides.Side
	+ Name : string <<get>>
	+ Price : double <<get>>
	+ Calories : uint <<get>>
	+ SpecialInstructions : System.Collections.Generic.List<string> <<get>>
	+ Drink : BleakwindBuffet.Data.Drinks.Drink <<get>> <<set>>
	+ Entree : BleakwindBuffet.Data.Entrees.Entree <<get>> <<set>>
	+ Side : BleakwindBuffet.Data.Sides.Side <<get>> <<set>>
	- OnItemChanged(sender : object, e : System.ComponentModel.PropertyChangedEventArgs) : void
}
BleakwindBuffet.Data.IOrderItem <|.. BleakwindBuffet.Data.Combo
System.ComponentModel.INotifyPropertyChanged <|.. BleakwindBuffet.Data.Combo
BleakwindBuffet.Data.Combo "1" o-- "1" BleakwindBuffet.Data.Drinks.Drink
BleakwindBuffet.Data.Combo "1" o-- "1" BleakwindBuffet.Data.Sides.Side
BleakwindBuffet.Data.Combo "1" o-- "1" BleakwindBuffet.Data.Entrees.Entree

interface BleakwindBuffet.Data.IOrderItem {
	{abstract} Price : double <<get>>
	{abstract} Calories : uint <<get>>
	{abstract} SpecialInstructions : System.Collections.Generic.List<string> <<get>>
	{abstract} Name : string <<get>>
}

class BleakwindBuffet.Data.Menu <<static>> {
	- {static} <<readonly>> sizes : BleakwindBuffet.Data.Enums.Size[]
	+ Entrees() : System.Collections.Generic.IEnumerable<BleakwindBuffet.Data.IOrderItem>
	+ Sides() : System.Collections.Generic.IEnumerable<BleakwindBuffet.Data.IOrderItem>
	+ Drinks() : System.Collections.Generic.IEnumerable<BleakwindBuffet.Data.IOrderItem>
	+ FullMenu() : System.Collections.Generic.IEnumerable<BleakwindBuffet.Data.IOrderItem>
}
BleakwindBuffet.Data.Menu "1" o-- "0..*" BleakwindBuffet.Data.IOrderItem

class BleakwindBuffet.Data.Order {
	+ <<event>> CollectionChanged : CollectionChangedEventHandler
	- {static} nextOrderNumber : int
	+ Number : int <<get>>
	+ SalesTaxRate : double <<get>> <<set>>
	+ Subtotal : double <<get>>
	+ Calories : uint <<get>>
	+ Tax : double <<get>>
	+ Total : double <<get>>
	+ Add(item : BleakwindBuffet.Data.IOrderItem) : void
	+ Clear() : void
	+ Remove(item : BleakwindBuffet.Data.IOrderItem) : bool
	- OnItemChanged(sender : object, e : System.ComponentModel.PropertyChangedEventArgs) : void
}
System.Collections.IEnumerable <|.. BleakwindBuffet.Data.Order
System.Collections.IList <|.. BleakwindBuffet.Data.Order
System.Collections.ICollection <|.. BleakwindBuffet.Data.Order
System.Collections.Specialized.INotifyCollectionChanged <|.. BleakwindBuffet.Data.Order
System.ComponentModel.INotifyPropertyChanged <|.. BleakwindBuffet.Data.Order
System.Collections.ObjectModel.ObservableCollection <|-- BleakwindBuffet.Data.Order
BleakwindBuffet.Data.Order "1" o-- "0..*" BleakwindBuffet.Data.IOrderItem

class BleakwindBuffet.Data.Sides.DragonbornWaffleFries {
	- size : BleakwindBuffet.Data.Enums.Size
	+ <<override>> Price : double <<get>>
	+ <<override>> Calories : uint <<get>>
	+ <<override>> Size : BleakwindBuffet.Data.Enums.Size <<get>> <<set>>
	+ <<override>> SpecialInstructions : System.Collections.Generic.List<string> <<get>>
	+ <<override>> ToString() : string
}
System.ComponentModel.INotifyPropertyChanged <|.. BleakwindBuffet.Data.Sides.DragonbornWaffleFries
BleakwindBuffet.Data.IOrderItem <|.. BleakwindBuffet.Data.Sides.DragonbornWaffleFries
BleakwindBuffet.Data.Sides.Side <|-- BleakwindBuffet.Data.Sides.DragonbornWaffleFries

class BleakwindBuffet.Data.Sides.FriedMiraak {
	- size : BleakwindBuffet.Data.Enums.Size
	+ <<override>> Price : double <<get>>
	+ <<override>> Calories : uint <<get>>
	+ <<override>> Size : BleakwindBuffet.Data.Enums.Size <<get>> <<set>>
	+ <<override>> SpecialInstructions : System.Collections.Generic.List<string> <<get>>
	+ <<override>> ToString() : string
}
System.ComponentModel.INotifyPropertyChanged <|.. BleakwindBuffet.Data.Sides.FriedMiraak
BleakwindBuffet.Data.IOrderItem <|.. BleakwindBuffet.Data.Sides.FriedMiraak
BleakwindBuffet.Data.Sides.Side <|-- BleakwindBuffet.Data.Sides.FriedMiraak

class BleakwindBuffet.Data.Sides.MadOtarGrits {
	- size : BleakwindBuffet.Data.Enums.Size
	+ <<override>> Price : double <<get>>
	+ <<override>> Calories : uint <<get>>
	+ <<override>> Size : BleakwindBuffet.Data.Enums.Size <<get>> <<set>>
	+ <<override>> SpecialInstructions : System.Collections.Generic.List<string> <<get>>
	+ <<override>> ToString() : string
}
System.ComponentModel.INotifyPropertyChanged <|.. BleakwindBuffet.Data.Sides.MadOtarGrits
BleakwindBuffet.Data.IOrderItem <|.. BleakwindBuffet.Data.Sides.MadOtarGrits
BleakwindBuffet.Data.Sides.Side <|-- BleakwindBuffet.Data.Sides.MadOtarGrits

abstract class BleakwindBuffet.Data.Sides.Side {
	+ <<event>> PropertyChanged : PropertyChangedEventHandler
	+ Name : string <<get>>
	+ {abstract} Size : BleakwindBuffet.Data.Enums.Size <<get>> <<set>>
	+ {abstract} Price : double <<get>>
	+ {abstract} Calories : uint <<get>>
	+ {abstract} SpecialInstructions : System.Collections.Generic.List<string> <<get>>
	- OnPropertyChanged(propertyName : string) : void
}
System.ComponentModel.INotifyPropertyChanged <|.. BleakwindBuffet.Data.Sides.Side

class BleakwindBuffet.Data.Sides.VokunSalad {
	- size : BleakwindBuffet.Data.Enums.Size
	+ <<override>> Price : double <<get>>
	+ <<override>> Calories : uint <<get>>
	+ <<override>> Size : BleakwindBuffet.Data.Enums.Size <<get>> <<set>>
	+ <<override>> SpecialInstructions : System.Collections.Generic.List<string> <<get>>
	+ <<override>> ToString() : string
}
System.ComponentModel.INotifyPropertyChanged <|.. BleakwindBuffet.Data.Sides.VokunSalad
BleakwindBuffet.Data.IOrderItem <|.. BleakwindBuffet.Data.Sides.VokunSalad
BleakwindBuffet.Data.Sides.Side <|-- BleakwindBuffet.Data.Sides.VokunSalad

enum BleakwindBuffet.Data.Enums.Size {
	Small
	Medium
	Large
}

enum BleakwindBuffet.Data.Enums.SodaFlavor {
	Blackberry
	Cherry
	Grapefruit
	Lemon
	Peach
	Watermelon
}

class BleakwindBuffet.Data.Entrees.BriarheartBurger {
	- bun : bool
	- ketchup : bool
	- mustard : bool
	- pickle : bool
	- cheese : bool
	+ <<override>> Price : double <<get>>
	+ <<override>> Calories : uint <<get>>
	+ <<override>> SpecialInstructions : System.Collections.Generic.List<string> <<get>>
	+ Bun : bool <<get>> <<set>>
	+ Ketchup : bool <<get>> <<set>>
	+ Mustard : bool <<get>> <<set>>
	+ Pickle : bool <<get>> <<set>>
	+ Cheese : bool <<get>> <<set>>
	+ <<override>> ToString() : string
}
System.ComponentModel.INotifyPropertyChanged <|.. BleakwindBuffet.Data.Entrees.BriarheartBurger
BleakwindBuffet.Data.IOrderItem <|.. BleakwindBuffet.Data.Entrees.BriarheartBurger
BleakwindBuffet.Data.Entrees.Entree <|-- BleakwindBuffet.Data.Entrees.BriarheartBurger

class BleakwindBuffet.Data.Entrees.DoubleDraugr {
	- bun : bool
	- ketchup : bool
	- mustard : bool
	- pickle : bool
	- cheese : bool
	- tomato : bool
	- lettuce : bool
	- mayo : bool
	+ <<override>> Price : double <<get>>
	+ <<override>> Calories : uint <<get>>
	+ <<override>> SpecialInstructions : System.Collections.Generic.List<string> <<get>>
	+ Bun : bool <<get>> <<set>>
	+ Ketchup : bool <<get>> <<set>>
	+ Mustard : bool <<get>> <<set>>
	+ Pickle : bool <<get>> <<set>>
	+ Cheese : bool <<get>> <<set>>
	+ Tomato : bool <<get>> <<set>>
	+ Lettuce : bool <<get>> <<set>>
	+ Mayo : bool <<get>> <<set>>
	+ <<override>> ToString() : string
}
System.ComponentModel.INotifyPropertyChanged <|.. BleakwindBuffet.Data.Entrees.DoubleDraugr
BleakwindBuffet.Data.IOrderItem <|.. BleakwindBuffet.Data.Entrees.DoubleDraugr
BleakwindBuffet.Data.Entrees.Entree <|-- BleakwindBuffet.Data.Entrees.DoubleDraugr

abstract class BleakwindBuffet.Data.Entrees.Entree {
	+ <<event>> PropertyChanged : PropertyChangedEventHandler
	+ Name : string <<get>>
	+ {abstract} Price : double <<get>>
	+ {abstract} Calories : uint <<get>>
	+ {abstract} SpecialInstructions : System.Collections.Generic.List<string> <<get>>
	- OnPropertyChanged(propertyName : string) : void
}
System.ComponentModel.INotifyPropertyChanged <|.. BleakwindBuffet.Data.Entrees.Entree

class BleakwindBuffet.Data.Entrees.GardenOrcOmelette {
	- broccoli : bool
	- mushrooms : bool
	- tomato : bool
	- cheddar : bool
	+ <<override>> Price : double <<get>>
	+ <<override>> Calories : uint <<get>>
	+ <<override>> SpecialInstructions : System.Collections.Generic.List<string> <<get>>
	+ Broccoli : bool <<get>> <<set>>
	+ Mushrooms : bool <<get>> <<set>>
	+ Tomato : bool <<get>> <<set>>
	+ Cheddar : bool <<get>> <<set>>
	+ <<override>> ToString() : string
}
System.ComponentModel.INotifyPropertyChanged <|.. BleakwindBuffet.Data.Entrees.GardenOrcOmelette
BleakwindBuffet.Data.IOrderItem <|.. BleakwindBuffet.Data.Entrees.GardenOrcOmelette
BleakwindBuffet.Data.Entrees.Entree <|-- BleakwindBuffet.Data.Entrees.GardenOrcOmelette

class BleakwindBuffet.Data.Entrees.PhillyPoacher {
	- sirloin : bool
	- onion : bool
	- roll : bool
	+ <<override>> Price : double <<get>>
	+ <<override>> Calories : uint <<get>>
	+ <<override>> SpecialInstructions : System.Collections.Generic.List<string> <<get>>
	+ Sirloin : bool <<get>> <<set>>
	+ Onion : bool <<get>> <<set>>
	+ Roll : bool <<get>> <<set>>
	+ <<override>> ToString() : string
}
System.ComponentModel.INotifyPropertyChanged <|.. BleakwindBuffet.Data.Entrees.PhillyPoacher
BleakwindBuffet.Data.IOrderItem <|.. BleakwindBuffet.Data.Entrees.PhillyPoacher
BleakwindBuffet.Data.Entrees.Entree <|-- BleakwindBuffet.Data.Entrees.PhillyPoacher

class BleakwindBuffet.Data.Entrees.SmokehouseSkeleton {
	- sausageLink : bool
	- egg : bool
	- hashBrowns : bool
	- pancake : bool
	+ <<override>> Price : double <<get>>
	+ <<override>> Calories : uint <<get>>
	+ <<override>> SpecialInstructions : System.Collections.Generic.List<string> <<get>>
	+ SausageLink : bool <<get>> <<set>>
	+ Egg : bool <<get>> <<set>>
	+ HashBrowns : bool <<get>> <<set>>
	+ Pancake : bool <<get>> <<set>>
	+ <<override>> ToString() : string
}
System.ComponentModel.INotifyPropertyChanged <|.. BleakwindBuffet.Data.Entrees.SmokehouseSkeleton
BleakwindBuffet.Data.IOrderItem <|.. BleakwindBuffet.Data.Entrees.SmokehouseSkeleton
BleakwindBuffet.Data.Entrees.Entree <|-- BleakwindBuffet.Data.Entrees.SmokehouseSkeleton

class BleakwindBuffet.Data.Entrees.ThalmorTriple {
	- bun : bool
	- ketchup : bool
	- mustard : bool
	- pickle : bool
	- cheese : bool
	- tomato : bool
	- lettuce : bool
	- mayo : bool
	- bacon : bool
	- egg : bool
	+ <<override>> Price : double <<get>>
	+ <<override>> Calories : uint <<get>>
	+ <<override>> SpecialInstructions : System.Collections.Generic.List<string> <<get>>
	+ Bun : bool <<get>> <<set>>
	+ Ketchup : bool <<get>> <<set>>
	+ Mustard : bool <<get>> <<set>>
	+ Pickle : bool <<get>> <<set>>
	+ Cheese : bool <<get>> <<set>>
	+ Tomato : bool <<get>> <<set>>
	+ Lettuce : bool <<get>> <<set>>
	+ Mayo : bool <<get>> <<set>>
	+ Bacon : bool <<get>> <<set>>
	+ Egg : bool <<get>> <<set>>
	+ <<override>> ToString() : string
}
System.ComponentModel.INotifyPropertyChanged <|.. BleakwindBuffet.Data.Entrees.ThalmorTriple
BleakwindBuffet.Data.IOrderItem <|.. BleakwindBuffet.Data.Entrees.ThalmorTriple
BleakwindBuffet.Data.Entrees.Entree <|-- BleakwindBuffet.Data.Entrees.ThalmorTriple

class BleakwindBuffet.Data.Entrees.ThugsTBone {
	+ <<override>> Price : double <<get>>
	+ <<override>> Calories : uint <<get>>
	+ <<override>> SpecialInstructions : System.Collections.Generic.List<string> <<get>>
	+ <<override>> ToString() : string
}
System.ComponentModel.INotifyPropertyChanged <|.. BleakwindBuffet.Data.Entrees.ThugsTBone
BleakwindBuffet.Data.IOrderItem <|.. BleakwindBuffet.Data.Entrees.ThugsTBone
BleakwindBuffet.Data.Entrees.Entree <|-- BleakwindBuffet.Data.Entrees.ThugsTBone

class BleakwindBuffet.Data.Drinks.AretinoAppleJuice {
	- size : BleakwindBuffet.Data.Enums.Size
	- ice : bool
	+ <<override>> Price : double <<get>>
	+ <<override>> Calories : uint <<get>>
	+ <<override>> Size : BleakwindBuffet.Data.Enums.Size <<get>> <<set>>
	+ <<override>> SpecialInstructions : System.Collections.Generic.List<string> <<get>>
	+ Ice : bool <<get>> <<set>>
	+ <<override>> ToString() : string
}
System.ComponentModel.INotifyPropertyChanged <|.. BleakwindBuffet.Data.Drinks.AretinoAppleJuice
BleakwindBuffet.Data.IOrderItem <|.. BleakwindBuffet.Data.Drinks.AretinoAppleJuice
BleakwindBuffet.Data.Drinks.Drink <|-- BleakwindBuffet.Data.Drinks.AretinoAppleJuice

class BleakwindBuffet.Data.Drinks.CandlehearthCoffee {
	- size : BleakwindBuffet.Data.Enums.Size
	- ice : bool
	- roomForCream : bool
	- decaf : bool
	+ <<override>> Price : double <<get>>
	+ <<override>> Calories : uint <<get>>
	+ <<override>> Size : BleakwindBuffet.Data.Enums.Size <<get>> <<set>>
	+ <<override>> SpecialInstructions : System.Collections.Generic.List<string> <<get>>
	+ Ice : bool <<get>> <<set>>
	+ RoomForCream : bool <<get>> <<set>>
	+ Decaf : bool <<get>> <<set>>
	+ <<override>> ToString() : string
}
System.ComponentModel.INotifyPropertyChanged <|.. BleakwindBuffet.Data.Drinks.CandlehearthCoffee
BleakwindBuffet.Data.IOrderItem <|.. BleakwindBuffet.Data.Drinks.CandlehearthCoffee
BleakwindBuffet.Data.Drinks.Drink <|-- BleakwindBuffet.Data.Drinks.CandlehearthCoffee

abstract class BleakwindBuffet.Data.Drinks.Drink {
	+ <<event>> PropertyChanged : PropertyChangedEventHandler
	+ Name : string <<get>>
	+ {abstract} Size : BleakwindBuffet.Data.Enums.Size <<get>> <<set>>
	+ {abstract} Price : double <<get>>
	+ {abstract} Calories : uint <<get>>
	+ {abstract} SpecialInstructions : System.Collections.Generic.List<string> <<get>>
	- OnPropertyChanged(propertyName : string) : void
}
System.ComponentModel.INotifyPropertyChanged <|.. BleakwindBuffet.Data.Drinks.Drink

class BleakwindBuffet.Data.Drinks.MarkarthMilk {
	- size : BleakwindBuffet.Data.Enums.Size
	- ice : bool
	+ <<override>> Price : double <<get>>
	+ <<override>> Calories : uint <<get>>
	+ <<override>> Size : BleakwindBuffet.Data.Enums.Size <<get>> <<set>>
	+ <<override>> SpecialInstructions : System.Collections.Generic.List<string> <<get>>
	+ Ice : bool <<get>> <<set>>
	+ <<override>> ToString() : string
}
System.ComponentModel.INotifyPropertyChanged <|.. BleakwindBuffet.Data.Drinks.MarkarthMilk
BleakwindBuffet.Data.IOrderItem <|.. BleakwindBuffet.Data.Drinks.MarkarthMilk
BleakwindBuffet.Data.Drinks.Drink <|-- BleakwindBuffet.Data.Drinks.MarkarthMilk

class BleakwindBuffet.Data.Drinks.SailorSoda {
	- size : BleakwindBuffet.Data.Enums.Size
	- ice : bool
	- flavor : BleakwindBuffet.Data.Enums.SodaFlavor
	+ <<override>> Price : double <<get>>
	+ <<override>> Calories : uint <<get>>
	+ <<override>> Size : BleakwindBuffet.Data.Enums.Size <<get>> <<set>>
	+ <<override>> SpecialInstructions : System.Collections.Generic.List<string> <<get>>
	+ Ice : bool <<get>> <<set>>
	+ Flavor : BleakwindBuffet.Data.Enums.SodaFlavor <<get>> <<set>>
	+ <<override>> ToString() : string
}
System.ComponentModel.INotifyPropertyChanged <|.. BleakwindBuffet.Data.Drinks.SailorSoda
BleakwindBuffet.Data.IOrderItem <|.. BleakwindBuffet.Data.Drinks.SailorSoda
BleakwindBuffet.Data.Drinks.Drink <|-- BleakwindBuffet.Data.Drinks.SailorSoda

class BleakwindBuffet.Data.Drinks.WarriorWater {
	- size : BleakwindBuffet.Data.Enums.Size
	- ice : bool
	- lemon : bool
	+ <<override>> Price : double <<get>>
	+ <<override>> Calories : uint <<get>>
	+ <<override>> Size : BleakwindBuffet.Data.Enums.Size <<get>> <<set>>
	+ <<override>> SpecialInstructions : System.Collections.Generic.List<string> <<get>>
	+ Ice : bool <<get>> <<set>>
	+ Lemon : bool <<get>> <<set>>
	+ <<override>> ToString() : string
}
System.ComponentModel.INotifyPropertyChanged <|.. BleakwindBuffet.Data.Drinks.WarriorWater
BleakwindBuffet.Data.IOrderItem <|.. BleakwindBuffet.Data.Drinks.WarriorWater
BleakwindBuffet.Data.Drinks.Drink <|-- BleakwindBuffet.Data.Drinks.WarriorWater






class BleakwindBuffet.PointOfSale.App {
	- _contentLoaded : bool
	+ InitializeComponent() : void
	+ Main() : void
}

class BleakwindBuffet.PointOfSale.MainWindow {
	- menuItems : System.Windows.Controls.ListBox
	- addBtn : System.Windows.Controls.Button
	- processPaymentBtn : System.Windows.Controls.Button
	- cancelOrderBtn : System.Windows.Controls.Button
	- customizationControl : System.Windows.Controls.Border
	- orderControl : System.Windows.Controls.DockPanel
	- orderItems : System.Windows.Controls.ListView
	- _contentLoaded : bool
	- MenuItems_SelectionChanged(sender : object, e : System.Windows.Input.MouseEventArgs) : void
	- addBtn_Click(sender : object, e : System.Windows.RoutedEventArgs) : void
	- cancelOrderBtn_Click(sender : object, e : System.Windows.RoutedEventArgs) : void
	- orderItems_SelectionChanged(sender : object, e : System.Windows.Input.MouseEventArgs) : void
	- orderControl_RemoveClicked(sender : object, e : System.Windows.RoutedEventArgs) : void
	+ InitializeComponent() : void
}
BleakwindBuffet.PointOfSale.MainWindow "1" *-- "0..*" BleakwindBuffet.PointOfSale.MenuItemControl

class BleakwindBuffet.PointOfSale.MenuItemControl {
	- _contentLoaded : bool
	+ InitializeComponent() : void
}
System.Windows.Controls.ListBoxItem <|-- BleakwindBuffet.PointOfSale.MenuItemControl

class BleakwindBuffet.PointOfSale.OrderItemControl {
	- removeBtn : System.Windows.Controls.Button
	- _contentLoaded : bool
	+ {static} <<readonly>> RemoveClickedEvent : System.Windows.RoutedEvent
	- removeBtn_Click(sender : object, e : System.Windows.RoutedEventArgs) : void
	+ InitializeComponent() : void
}
BleakwindBuffet.PointOfSale.Order "1" *-- "0..*" BleakwindBuffet.PointOfSale.OrderItemControl

class BleakwindBuffet.PointOfSale.Sides.DragonbornWaffleFriesControl {
	- _contentLoaded : bool
	+ InitializeComponent() : void
}
BleakwindBuffet.PointOfSale.MainWindow "1" *-- "0..1" BleakwindBuffet.PointOfSale.Sides.DragonbornWaffleFriesControl
BleakwindBuffet.PointOfSale.Sides.DragonbornWaffleFriesControl "1" *-- "1" BleakwindBuffet.PointOfSale.Enums.SizeControl

class BleakwindBuffet.PointOfSale.Sides.FriedMiraakControl {
	- _contentLoaded : bool
	+ InitializeComponent() : void
}
BleakwindBuffet.PointOfSale.MainWindow "1" *-- "0..1" BleakwindBuffet.PointOfSale.Sides.FriedMiraakControl
BleakwindBuffet.PointOfSale.Sides.FriedMiraakControl "1" *-- "1" BleakwindBuffet.PointOfSale.Enums.SizeControl

class BleakwindBuffet.PointOfSale.Sides.MadOtarGritsControl {
	- _contentLoaded : bool
	+ InitializeComponent() : void
}
BleakwindBuffet.PointOfSale.MainWindow "1" *-- "0..1" BleakwindBuffet.PointOfSale.Sides.MadOtarGritsControl
BleakwindBuffet.PointOfSale.Sides.MadOtarGritsControl "1" *-- "1" BleakwindBuffet.PointOfSale.Enums.SizeControl

class BleakwindBuffet.PointOfSale.Sides.VokunSaladControl {
	- _contentLoaded : bool
	+ InitializeComponent() : void
}
BleakwindBuffet.PointOfSale.MainWindow "1" *-- "0..1" BleakwindBuffet.PointOfSale.Sides.VokunSaladControl
BleakwindBuffet.PointOfSale.Sides.VokunSaladControl "1" *-- "1" BleakwindBuffet.PointOfSale.Enums.SizeControl

class BleakwindBuffet.PointOfSale.Enums.SizeControl {
	- _contentLoaded : bool
	+ InitializeComponent() : void
}

class BleakwindBuffet.PointOfSale.Enums.SodaFlavorControl {
	- _contentLoaded : bool
	+ InitializeComponent() : void
}

class BleakwindBuffet.PointOfSale.Entrees.BriarheartBurgerControl {
	- _contentLoaded : bool
	+ InitializeComponent() : void
}
BleakwindBuffet.PointOfSale.MainWindow "1" *-- "0..1" BleakwindBuffet.PointOfSale.Entrees.BriarheartBurgerControl

class BleakwindBuffet.PointOfSale.Entrees.DoubleDraugrControl {
	- _contentLoaded : bool
	+ InitializeComponent() : void
}
BleakwindBuffet.PointOfSale.MainWindow "1" *-- "0..1" BleakwindBuffet.PointOfSale.Entrees.DoubleDraugrControl

class BleakwindBuffet.PointOfSale.Entrees.GardenOrcOmeletteControl {
	- _contentLoaded : bool
	+ InitializeComponent() : void
}
BleakwindBuffet.PointOfSale.MainWindow "1" *-- "0..1" BleakwindBuffet.PointOfSale.Entrees.GardenOrcOmeletteControl

class BleakwindBuffet.PointOfSale.Entrees.PhillyPoacherControl {
	- _contentLoaded : bool
	+ InitializeComponent() : void
}
BleakwindBuffet.PointOfSale.MainWindow "1" *-- "0..1" BleakwindBuffet.PointOfSale.Entrees.PhillyPoacherControl

class BleakwindBuffet.PointOfSale.Entrees.SmokehouseSkeletonControl {
	- _contentLoaded : bool
	+ InitializeComponent() : void
}
BleakwindBuffet.PointOfSale.MainWindow "1" *-- "0..1" BleakwindBuffet.PointOfSale.Entrees.SmokehouseSkeletonControl

class BleakwindBuffet.PointOfSale.Entrees.ThalmorTripleControl {
	- _contentLoaded : bool
	+ InitializeComponent() : void
}
BleakwindBuffet.PointOfSale.MainWindow "1" *-- "0..1" BleakwindBuffet.PointOfSale.Entrees.ThalmorTripleControl

class BleakwindBuffet.PointOfSale.Entrees.ThugsTBoneControl {
	- _contentLoaded : bool
	+ InitializeComponent() : void
}
BleakwindBuffet.PointOfSale.MainWindow "1" *-- "0..1" BleakwindBuffet.PointOfSale.Entrees.ThugsTBoneControl

class BleakwindBuffet.PointOfSale.Drinks.AretinoAppleJuiceControl {
	- _contentLoaded : bool
	+ InitializeComponent() : void
}
BleakwindBuffet.PointOfSale.MainWindow "1" *-- "0..1" BleakwindBuffet.PointOfSale.Drinks.AretinoAppleJuiceControl
BleakwindBuffet.PointOfSale.Drinks.AretinoAppleJuiceControl "1" *-- "1" BleakwindBuffet.PointOfSale.Enums.SizeControl

class BleakwindBuffet.PointOfSale.Drinks.CandlehearthCoffeeControl {
	- _contentLoaded : bool
	+ InitializeComponent() : void
}
BleakwindBuffet.PointOfSale.MainWindow "1" *-- "0..1" BleakwindBuffet.PointOfSale.Drinks.CandlehearthCoffeeControl
BleakwindBuffet.PointOfSale.Drinks.CandlehearthCoffeeControl "1" *-- "1" BleakwindBuffet.PointOfSale.Enums.SizeControl

class BleakwindBuffet.PointOfSale.Drinks.MarkarthMilkControl {
	- _contentLoaded : bool
	+ InitializeComponent() : void
}
BleakwindBuffet.PointOfSale.MainWindow "1" *-- "0..1" BleakwindBuffet.PointOfSale.Drinks.MarkarthMilkControl
BleakwindBuffet.PointOfSale.Drinks.MarkarthMilkControl "1" *-- "1" BleakwindBuffet.PointOfSale.Enums.SizeControl

class BleakwindBuffet.PointOfSale.Drinks.SailorSodaControl {
	- _contentLoaded : bool
	+ InitializeComponent() : void
}
BleakwindBuffet.PointOfSale.MainWindow "1" *-- "0..1" BleakwindBuffet.PointOfSale.Drinks.SailorSodaControl
BleakwindBuffet.PointOfSale.Drinks.SailorSodaControl "1" *-- "1" BleakwindBuffet.PointOfSale.Enums.SizeControl
BleakwindBuffet.PointOfSale.Drinks.SailorSodaControl "1" *-- "1" BleakwindBuffet.PointOfSale.Enums.SodaFlavorControl

class BleakwindBuffet.PointOfSale.Drinks.WarriorWaterControl {
	- _contentLoaded : bool
	+ InitializeComponent() : void
}
BleakwindBuffet.PointOfSale.MainWindow "1" *-- "0..1" BleakwindBuffet.PointOfSale.Drinks.WarriorWaterControl
BleakwindBuffet.PointOfSale.Drinks.WarriorWaterControl "1" *-- "1" BleakwindBuffet.PointOfSale.Enums.SizeControl

@enduml
