@startuml

skinparam classAttributeIconSize 0

class BleakwindBuffet.Website.Program {
	+ Main(args : string[]) : void
	+ CreateHostBuilder(args : string[]) : Microsoft.Extensions.Hosting.IHostBuilder
}

class BleakwindBuffet.Website.Startup {
	+ Configuration : Microsoft.Extensions.Configuration.IConfiguration <<get>>
	+ ConfigureServices(services : Microsoft.Extensions.DependencyInjection.IServiceCollection) : void
	+ Configure(app : Microsoft.AspNetCore.Builder.IApplicationBuilder, env : Microsoft.AspNetCore.Hosting.IWebHostEnvironment) : void
}

class BleakwindBuffet.Website.Pages.AboutModel {
	+ OnGet() : void
}
Microsoft.AspNetCore.Mvc.RazorPages.PageModel <|-- BleakwindBuffet.Website.Pages.AboutModel

class BleakwindBuffet.Website.Pages.ErrorModel {
	- <<readonly>> _logger : Microsoft.Extensions.Logging.ILogger<BleakwindBuffet.Website.Pages.ErrorModel>
	+ RequestId : string <<get>> <<set>>
	+ ShowRequestId : bool <<get>>
	+ OnGet() : void
}
Microsoft.AspNetCore.Mvc.RazorPages.PageModel <|-- BleakwindBuffet.Website.Pages.ErrorModel

class BleakwindBuffet.Website.Pages.IndexModel {
	+ Entrees : System.Collections.Generic.IEnumerable<BleakwindBuffet.Data.IOrderItem> <<get>>
	+ Sides : System.Collections.Generic.IEnumerable<BleakwindBuffet.Data.IOrderItem> <<get>>
	+ Drinks : System.Collections.Generic.IEnumerable<BleakwindBuffet.Data.IOrderItem> <<get>>
	+ SearchTerms : string <<get>> <<set>>
	+ PriceMin : System.Nullable<decimal> <<get>> <<set>>
	+ PriceMax : System.Nullable<decimal> <<get>> <<set>>
	+ CaloriesMin : System.Nullable<uint> <<get>> <<set>>
	+ CaloriesMax : System.Nullable<uint> <<get>> <<set>>
	+ Categories : string[] <<get>> <<set>>
}
Microsoft.AspNetCore.Mvc.RazorPages.PageModel <|-- BleakwindBuffet.Website.Pages.IndexModel

class BleakwindBuffet.Website.Pages.PrivacyModel {
	+ OnGet() : void
}
Microsoft.AspNetCore.Mvc.RazorPages.PageModel <|-- BleakwindBuffet.Website.Pages.PrivacyModel

class BleakwindBuffet.Data.Combo {
	+ <<event>> PropertyChanged : System.ComponentModel.PropertyChangedEventHandler
	- drink : BleakwindBuffet.Data.Drinks.Drink
	- entree : BleakwindBuffet.Data.Entrees.Entree
	- side : BleakwindBuffet.Data.Sides.Side
	+ Name : string <<get>>
	+ Price : decimal <<get>>
	+ Calories : uint <<get>>
	+ SpecialInstructions : System.Collections.Generic.List<string> <<get>>
	+ Drink : BleakwindBuffet.Data.Drinks.Drink <<get>> <<set>>
	+ Entree : BleakwindBuffet.Data.Entrees.Entree <<get>> <<set>>
	+ Side : BleakwindBuffet.Data.Sides.Side <<get>> <<set>>
	- OnItemChanged(sender : object, e : System.ComponentModel.PropertyChangedEventArgs) : void
	+ <<override>> ToString() : string
}
BleakwindBuffet.Data.IOrderItem <|.. BleakwindBuffet.Data.Combo
System.ComponentModel.INotifyPropertyChanged <|.. BleakwindBuffet.Data.Combo

interface BleakwindBuffet.Data.IOrderItem {
	{abstract} Price : decimal <<get>>
	{abstract} Calories : uint <<get>>
	{abstract} SpecialInstructions : System.Collections.Generic.List<string> <<get>>
	{abstract} Name : string <<get>>
}

class BleakwindBuffet.Data.Menu <<static>> {
	- {static} <<readonly>> sizes : BleakwindBuffet.Data.Enums.Size[]
	+ Entrees() : System.Collections.Generic.IEnumerable<BleakwindBuffet.Data.IOrderItem>
	+ Sides() : System.Collections.Generic.IEnumerable<BleakwindBuffet.Data.IOrderItem>
	+ Drinks() : System.Collections.Generic.IEnumerable<BleakwindBuffet.Data.IOrderItem>
	+ FullMenu() : System.Collections.Generic.IEnumerable<BleakwindBuffet.Data.IOrderItem>
	+ Search(items : System.Collections.Generic.IEnumerable<BleakwindBuffet.Data.IOrderItem>, searchTerms : string) : System.Collections.Generic.IEnumerable<BleakwindBuffet.Data.IOrderItem>
	+ FilterByCategory(items : System.Collections.Generic.IEnumerable<BleakwindBuffet.Data.IOrderItem>, categories : System.Collections.Generic.IEnumerable<string>) : System.Collections.Generic.IEnumerable<BleakwindBuffet.Data.IOrderItem>
	+ FilterByCalories(items : System.Collections.Generic.IEnumerable<BleakwindBuffet.Data.IOrderItem>, min : System.Nullable<uint>, max : System.Nullable<uint>) : System.Collections.Generic.IEnumerable<BleakwindBuffet.Data.IOrderItem>
	+ FilterByPrice(items : System.Collections.Generic.IEnumerable<BleakwindBuffet.Data.IOrderItem>, min : System.Nullable<decimal>, max : System.Nullable<decimal>) : System.Collections.Generic.IEnumerable<BleakwindBuffet.Data.IOrderItem>
}

class BleakwindBuffet.Data.Order {
	- {static} nextOrderNumber : int
	+ Number : int <<get>>
	+ SalesTaxRate : decimal <<get>> <<set>>
	+ Subtotal : decimal <<get>>
	+ Calories : uint <<get>>
	+ Tax : decimal <<get>>
	+ Total : decimal <<get>>
	+ Add(item : BleakwindBuffet.Data.IOrderItem) : void
	+ Clear() : void
	+ Remove(item : BleakwindBuffet.Data.IOrderItem) : bool
	- OnItemChanged(sender : object, e : System.ComponentModel.PropertyChangedEventArgs) : void
}
System.Collections.IEnumerable <|.. BleakwindBuffet.Data.Order
System.Collections.IList <|.. BleakwindBuffet.Data.Order
System.Collections.ICollection <|.. BleakwindBuffet.Data.Order
System.Collections.Specialized.INotifyCollectionChanged <|.. BleakwindBuffet.Data.Order
System.ComponentModel.INotifyPropertyChanged <|.. BleakwindBuffet.Data.Order
System.Collections.ObjectModel.ObservableCollection <|-- BleakwindBuffet.Data.Order

class BleakwindBuffet.Data.Sides.DragonbornWaffleFries {
	- size : BleakwindBuffet.Data.Enums.Size
	+ <<override>> Price : decimal <<get>>
	+ <<override>> Calories : uint <<get>>
	+ <<override>> Size : BleakwindBuffet.Data.Enums.Size <<get>> <<set>>
	+ <<override>> SpecialInstructions : System.Collections.Generic.List<string> <<get>>
	+ <<override>> ToString() : string
}
System.ComponentModel.INotifyPropertyChanged <|.. BleakwindBuffet.Data.Sides.DragonbornWaffleFries
BleakwindBuffet.Data.IOrderItem <|.. BleakwindBuffet.Data.Sides.DragonbornWaffleFries
BleakwindBuffet.Data.Sides.Side <|-- BleakwindBuffet.Data.Sides.DragonbornWaffleFries

class BleakwindBuffet.Data.Sides.FriedMiraak {
	- size : BleakwindBuffet.Data.Enums.Size
	+ <<override>> Price : decimal <<get>>
	+ <<override>> Calories : uint <<get>>
	+ <<override>> Size : BleakwindBuffet.Data.Enums.Size <<get>> <<set>>
	+ <<override>> SpecialInstructions : System.Collections.Generic.List<string> <<get>>
	+ <<override>> ToString() : string
}
System.ComponentModel.INotifyPropertyChanged <|.. BleakwindBuffet.Data.Sides.FriedMiraak
BleakwindBuffet.Data.IOrderItem <|.. BleakwindBuffet.Data.Sides.FriedMiraak
BleakwindBuffet.Data.Sides.Side <|-- BleakwindBuffet.Data.Sides.FriedMiraak

class BleakwindBuffet.Data.Sides.MadOtarGrits {
	- size : BleakwindBuffet.Data.Enums.Size
	+ <<override>> Price : decimal <<get>>
	+ <<override>> Calories : uint <<get>>
	+ <<override>> Size : BleakwindBuffet.Data.Enums.Size <<get>> <<set>>
	+ <<override>> SpecialInstructions : System.Collections.Generic.List<string> <<get>>
	+ <<override>> ToString() : string
}
System.ComponentModel.INotifyPropertyChanged <|.. BleakwindBuffet.Data.Sides.MadOtarGrits
BleakwindBuffet.Data.IOrderItem <|.. BleakwindBuffet.Data.Sides.MadOtarGrits
BleakwindBuffet.Data.Sides.Side <|-- BleakwindBuffet.Data.Sides.MadOtarGrits

abstract class BleakwindBuffet.Data.Sides.Side {
	+ <<event>> PropertyChanged : System.ComponentModel.PropertyChangedEventHandler
	+ Name : string <<get>>
	+ {abstract} Size : BleakwindBuffet.Data.Enums.Size <<get>> <<set>>
	+ {abstract} Price : decimal <<get>>
	+ {abstract} Calories : uint <<get>>
	+ {abstract} SpecialInstructions : System.Collections.Generic.List<string> <<get>>
	# OnPropertyChanged(propertyName : string) : void
}
System.ComponentModel.INotifyPropertyChanged <|.. BleakwindBuffet.Data.Sides.Side

class BleakwindBuffet.Data.Sides.VokunSalad {
	- size : BleakwindBuffet.Data.Enums.Size
	+ <<override>> Price : decimal <<get>>
	+ <<override>> Calories : uint <<get>>
	+ <<override>> Size : BleakwindBuffet.Data.Enums.Size <<get>> <<set>>
	+ <<override>> SpecialInstructions : System.Collections.Generic.List<string> <<get>>
	+ <<override>> ToString() : string
}
System.ComponentModel.INotifyPropertyChanged <|.. BleakwindBuffet.Data.Sides.VokunSalad
BleakwindBuffet.Data.IOrderItem <|.. BleakwindBuffet.Data.Sides.VokunSalad
BleakwindBuffet.Data.Sides.Side <|-- BleakwindBuffet.Data.Sides.VokunSalad

enum BleakwindBuffet.Data.Enums.Size {
	Small
	Medium
	Large
}

enum BleakwindBuffet.Data.Enums.SodaFlavor {
	Blackberry
	Cherry
	Grapefruit
	Lemon
	Peach
	Watermelon
}

class BleakwindBuffet.Data.Entrees.BriarheartBurger {
	- bun : bool
	- ketchup : bool
	- mustard : bool
	- pickle : bool
	- cheese : bool
	+ <<override>> Price : decimal <<get>>
	+ <<override>> Calories : uint <<get>>
	+ <<override>> SpecialInstructions : System.Collections.Generic.List<string> <<get>>
	+ Bun : bool <<get>> <<set>>
	+ Ketchup : bool <<get>> <<set>>
	+ Mustard : bool <<get>> <<set>>
	+ Pickle : bool <<get>> <<set>>
	+ Cheese : bool <<get>> <<set>>
	+ <<override>> ToString() : string
}
System.ComponentModel.INotifyPropertyChanged <|.. BleakwindBuffet.Data.Entrees.BriarheartBurger
BleakwindBuffet.Data.IOrderItem <|.. BleakwindBuffet.Data.Entrees.BriarheartBurger
BleakwindBuffet.Data.Entrees.Entree <|-- BleakwindBuffet.Data.Entrees.BriarheartBurger

class BleakwindBuffet.Data.Entrees.DoubleDraugr {
	- bun : bool
	- ketchup : bool
	- mustard : bool
	- pickle : bool
	- cheese : bool
	- tomato : bool
	- lettuce : bool
	- mayo : bool
	+ <<override>> Price : decimal <<get>>
	+ <<override>> Calories : uint <<get>>
	+ <<override>> SpecialInstructions : System.Collections.Generic.List<string> <<get>>
	+ Bun : bool <<get>> <<set>>
	+ Ketchup : bool <<get>> <<set>>
	+ Mustard : bool <<get>> <<set>>
	+ Pickle : bool <<get>> <<set>>
	+ Cheese : bool <<get>> <<set>>
	+ Tomato : bool <<get>> <<set>>
	+ Lettuce : bool <<get>> <<set>>
	+ Mayo : bool <<get>> <<set>>
	+ <<override>> ToString() : string
}
System.ComponentModel.INotifyPropertyChanged <|.. BleakwindBuffet.Data.Entrees.DoubleDraugr
BleakwindBuffet.Data.IOrderItem <|.. BleakwindBuffet.Data.Entrees.DoubleDraugr
BleakwindBuffet.Data.Entrees.Entree <|-- BleakwindBuffet.Data.Entrees.DoubleDraugr

abstract class BleakwindBuffet.Data.Entrees.Entree {
	+ <<event>> PropertyChanged : System.ComponentModel.PropertyChangedEventHandler
	+ Name : string <<get>>
	+ {abstract} Price : decimal <<get>>
	+ {abstract} Calories : uint <<get>>
	+ {abstract} SpecialInstructions : System.Collections.Generic.List<string> <<get>>
	# OnPropertyChanged(propertyName : string) : void
}
System.ComponentModel.INotifyPropertyChanged <|.. BleakwindBuffet.Data.Entrees.Entree

class BleakwindBuffet.Data.Entrees.GardenOrcOmelette {
	- broccoli : bool
	- mushrooms : bool
	- tomato : bool
	- cheddar : bool
	+ <<override>> Price : decimal <<get>>
	+ <<override>> Calories : uint <<get>>
	+ <<override>> SpecialInstructions : System.Collections.Generic.List<string> <<get>>
	+ Broccoli : bool <<get>> <<set>>
	+ Mushrooms : bool <<get>> <<set>>
	+ Tomato : bool <<get>> <<set>>
	+ Cheddar : bool <<get>> <<set>>
	+ <<override>> ToString() : string
}
System.ComponentModel.INotifyPropertyChanged <|.. BleakwindBuffet.Data.Entrees.GardenOrcOmelette
BleakwindBuffet.Data.IOrderItem <|.. BleakwindBuffet.Data.Entrees.GardenOrcOmelette
BleakwindBuffet.Data.Entrees.Entree <|-- BleakwindBuffet.Data.Entrees.GardenOrcOmelette

class BleakwindBuffet.Data.Entrees.PhillyPoacher {
	- sirloin : bool
	- onion : bool
	- roll : bool
	+ <<override>> Price : decimal <<get>>
	+ <<override>> Calories : uint <<get>>
	+ <<override>> SpecialInstructions : System.Collections.Generic.List<string> <<get>>
	+ Sirloin : bool <<get>> <<set>>
	+ Onion : bool <<get>> <<set>>
	+ Roll : bool <<get>> <<set>>
	+ <<override>> ToString() : string
}
System.ComponentModel.INotifyPropertyChanged <|.. BleakwindBuffet.Data.Entrees.PhillyPoacher
BleakwindBuffet.Data.IOrderItem <|.. BleakwindBuffet.Data.Entrees.PhillyPoacher
BleakwindBuffet.Data.Entrees.Entree <|-- BleakwindBuffet.Data.Entrees.PhillyPoacher

class BleakwindBuffet.Data.Entrees.SmokehouseSkeleton {
	- sausageLink : bool
	- egg : bool
	- hashBrowns : bool
	- pancake : bool
	+ <<override>> Price : decimal <<get>>
	+ <<override>> Calories : uint <<get>>
	+ <<override>> SpecialInstructions : System.Collections.Generic.List<string> <<get>>
	+ SausageLink : bool <<get>> <<set>>
	+ Egg : bool <<get>> <<set>>
	+ HashBrowns : bool <<get>> <<set>>
	+ Pancake : bool <<get>> <<set>>
	+ <<override>> ToString() : string
}
System.ComponentModel.INotifyPropertyChanged <|.. BleakwindBuffet.Data.Entrees.SmokehouseSkeleton
BleakwindBuffet.Data.IOrderItem <|.. BleakwindBuffet.Data.Entrees.SmokehouseSkeleton
BleakwindBuffet.Data.Entrees.Entree <|-- BleakwindBuffet.Data.Entrees.SmokehouseSkeleton

class BleakwindBuffet.Data.Entrees.ThalmorTriple {
	- bun : bool
	- ketchup : bool
	- mustard : bool
	- pickle : bool
	- cheese : bool
	- tomato : bool
	- lettuce : bool
	- mayo : bool
	- bacon : bool
	- egg : bool
	+ <<override>> Price : decimal <<get>>
	+ <<override>> Calories : uint <<get>>
	+ <<override>> SpecialInstructions : System.Collections.Generic.List<string> <<get>>
	+ Bun : bool <<get>> <<set>>
	+ Ketchup : bool <<get>> <<set>>
	+ Mustard : bool <<get>> <<set>>
	+ Pickle : bool <<get>> <<set>>
	+ Cheese : bool <<get>> <<set>>
	+ Tomato : bool <<get>> <<set>>
	+ Lettuce : bool <<get>> <<set>>
	+ Mayo : bool <<get>> <<set>>
	+ Bacon : bool <<get>> <<set>>
	+ Egg : bool <<get>> <<set>>
	+ <<override>> ToString() : string
}
System.ComponentModel.INotifyPropertyChanged <|.. BleakwindBuffet.Data.Entrees.ThalmorTriple
BleakwindBuffet.Data.IOrderItem <|.. BleakwindBuffet.Data.Entrees.ThalmorTriple
BleakwindBuffet.Data.Entrees.Entree <|-- BleakwindBuffet.Data.Entrees.ThalmorTriple

class BleakwindBuffet.Data.Entrees.ThugsTBone {
	+ <<override>> Price : decimal <<get>>
	+ <<override>> Calories : uint <<get>>
	+ <<override>> SpecialInstructions : System.Collections.Generic.List<string> <<get>>
	+ <<override>> ToString() : string
}
System.ComponentModel.INotifyPropertyChanged <|.. BleakwindBuffet.Data.Entrees.ThugsTBone
BleakwindBuffet.Data.IOrderItem <|.. BleakwindBuffet.Data.Entrees.ThugsTBone
BleakwindBuffet.Data.Entrees.Entree <|-- BleakwindBuffet.Data.Entrees.ThugsTBone

class BleakwindBuffet.Data.Drinks.AretinoAppleJuice {
	- size : BleakwindBuffet.Data.Enums.Size
	- ice : bool
	+ <<override>> Price : decimal <<get>>
	+ <<override>> Calories : uint <<get>>
	+ <<override>> Size : BleakwindBuffet.Data.Enums.Size <<get>> <<set>>
	+ <<override>> SpecialInstructions : System.Collections.Generic.List<string> <<get>>
	+ Ice : bool <<get>> <<set>>
	+ <<override>> ToString() : string
}
System.ComponentModel.INotifyPropertyChanged <|.. BleakwindBuffet.Data.Drinks.AretinoAppleJuice
BleakwindBuffet.Data.IOrderItem <|.. BleakwindBuffet.Data.Drinks.AretinoAppleJuice
BleakwindBuffet.Data.Drinks.Drink <|-- BleakwindBuffet.Data.Drinks.AretinoAppleJuice

class BleakwindBuffet.Data.Drinks.CandlehearthCoffee {
	- size : BleakwindBuffet.Data.Enums.Size
	- ice : bool
	- roomForCream : bool
	- decaf : bool
	+ <<override>> Price : decimal <<get>>
	+ <<override>> Calories : uint <<get>>
	+ <<override>> Size : BleakwindBuffet.Data.Enums.Size <<get>> <<set>>
	+ <<override>> SpecialInstructions : System.Collections.Generic.List<string> <<get>>
	+ Ice : bool <<get>> <<set>>
	+ RoomForCream : bool <<get>> <<set>>
	+ Decaf : bool <<get>> <<set>>
	+ <<override>> ToString() : string
}
System.ComponentModel.INotifyPropertyChanged <|.. BleakwindBuffet.Data.Drinks.CandlehearthCoffee
BleakwindBuffet.Data.IOrderItem <|.. BleakwindBuffet.Data.Drinks.CandlehearthCoffee
BleakwindBuffet.Data.Drinks.Drink <|-- BleakwindBuffet.Data.Drinks.CandlehearthCoffee

abstract class BleakwindBuffet.Data.Drinks.Drink {
	+ <<event>> PropertyChanged : System.ComponentModel.PropertyChangedEventHandler
	+ Name : string <<get>>
	+ {abstract} Size : BleakwindBuffet.Data.Enums.Size <<get>> <<set>>
	+ {abstract} Price : decimal <<get>>
	+ {abstract} Calories : uint <<get>>
	+ {abstract} SpecialInstructions : System.Collections.Generic.List<string> <<get>>
	# OnPropertyChanged(propertyName : string) : void
}
System.ComponentModel.INotifyPropertyChanged <|.. BleakwindBuffet.Data.Drinks.Drink

class BleakwindBuffet.Data.Drinks.MarkarthMilk {
	- size : BleakwindBuffet.Data.Enums.Size
	- ice : bool
	+ <<override>> Price : decimal <<get>>
	+ <<override>> Calories : uint <<get>>
	+ <<override>> Size : BleakwindBuffet.Data.Enums.Size <<get>> <<set>>
	+ <<override>> SpecialInstructions : System.Collections.Generic.List<string> <<get>>
	+ Ice : bool <<get>> <<set>>
	+ <<override>> ToString() : string
}
System.ComponentModel.INotifyPropertyChanged <|.. BleakwindBuffet.Data.Drinks.MarkarthMilk
BleakwindBuffet.Data.IOrderItem <|.. BleakwindBuffet.Data.Drinks.MarkarthMilk
BleakwindBuffet.Data.Drinks.Drink <|-- BleakwindBuffet.Data.Drinks.MarkarthMilk

class BleakwindBuffet.Data.Drinks.SailorSoda {
	- size : BleakwindBuffet.Data.Enums.Size
	- ice : bool
	- flavor : BleakwindBuffet.Data.Enums.SodaFlavor
	+ <<override>> Price : decimal <<get>>
	+ <<override>> Calories : uint <<get>>
	+ <<override>> Size : BleakwindBuffet.Data.Enums.Size <<get>> <<set>>
	+ <<override>> SpecialInstructions : System.Collections.Generic.List<string> <<get>>
	+ Ice : bool <<get>> <<set>>
	+ Flavor : BleakwindBuffet.Data.Enums.SodaFlavor <<get>> <<set>>
	+ <<override>> ToString() : string
}
System.ComponentModel.INotifyPropertyChanged <|.. BleakwindBuffet.Data.Drinks.SailorSoda
BleakwindBuffet.Data.IOrderItem <|.. BleakwindBuffet.Data.Drinks.SailorSoda
BleakwindBuffet.Data.Drinks.Drink <|-- BleakwindBuffet.Data.Drinks.SailorSoda

class BleakwindBuffet.Data.Drinks.WarriorWater {
	- size : BleakwindBuffet.Data.Enums.Size
	- ice : bool
	- lemon : bool
	+ <<override>> Price : decimal <<get>>
	+ <<override>> Calories : uint <<get>>
	+ <<override>> Size : BleakwindBuffet.Data.Enums.Size <<get>> <<set>>
	+ <<override>> SpecialInstructions : System.Collections.Generic.List<string> <<get>>
	+ Ice : bool <<get>> <<set>>
	+ Lemon : bool <<get>> <<set>>
	+ <<override>> ToString() : string
}
System.ComponentModel.INotifyPropertyChanged <|.. BleakwindBuffet.Data.Drinks.WarriorWater
BleakwindBuffet.Data.IOrderItem <|.. BleakwindBuffet.Data.Drinks.WarriorWater
BleakwindBuffet.Data.Drinks.Drink <|-- BleakwindBuffet.Data.Drinks.WarriorWater

class BleakwindBuffet.PointOfSale.App {
	- _contentLoaded : bool
	+ InitializeComponent() : void
	+ Main() : void
}
System.Windows.Application <|-- BleakwindBuffet.PointOfSale.App

class BleakwindBuffet.PointOfSale.CashDrawerViewModel {
	+ <<event>> PropertyChanged : System.ComponentModel.PropertyChangedEventHandler
	- saleAmount : decimal
	- penniesFromCustomer : int
	- nickelsFromCustomer : int
	- dimesFromCustomer : int
	- quartersFromCustomer : int
	- onesFromCustomer : int
	- twosFromCustomer : int
	- fivesFromCustomer : int
	- tensFromCustomer : int
	- twentiesFromCustomer : int
	- fiftiesFromCustomer : int
	- hundredsFromCustomer : int
	+ SaleAmount : decimal <<get>> <<set>>
	+ AmountStillOwed : decimal <<get>>
	+ ChangeDue : decimal <<get>>
	+ PenniesFromCustomer : int <<get>> <<set>>
	+ NickelsFromCustomer : int <<get>> <<set>>
	+ DimesFromCustomer : int <<get>> <<set>>
	+ QuartersFromCustomer : int <<get>> <<set>>
	+ OnesFromCustomer : int <<get>> <<set>>
	+ TwosFromCustomer : int <<get>> <<set>>
	+ FivesFromCustomer : int <<get>> <<set>>
	+ TensFromCustomer : int <<get>> <<set>>
	+ TwentiesFromCustomer : int <<get>> <<set>>
	+ FiftiesFromCustomer : int <<get>> <<set>>
	+ HundredsFromCustomer : int <<get>> <<set>>
	+ PenniesAsChange : int <<get>>
	+ NickelsAsChange : int <<get>>
	+ DimesAsChange : int <<get>>
	+ QuartersAsChange : int <<get>>
	+ OnesAsChange : int <<get>>
	+ TwosAsChange : int <<get>>
	+ FivesAsChange : int <<get>>
	+ TensAsChange : int <<get>>
	+ TwentiesAsChange : int <<get>>
	+ FiftiesAsChange : int <<get>>
	+ HundredsAsChange : int <<get>>
	+ FinalizeSale() : void
	- MakeChange() : void
	# OnPropertyChanged() : void
}
System.ComponentModel.INotifyPropertyChanged <|.. BleakwindBuffet.PointOfSale.CashDrawerViewModel

class BleakwindBuffet.PointOfSale.CashDrawerWindow {
	- finalizeSale : System.Windows.Controls.Button
	- returnToOrder : System.Windows.Controls.Button
	- _contentLoaded : bool
	- returnToOrder_Click(sender : object, e : System.Windows.RoutedEventArgs) : void
	- finalizeSale_Click(sender : object, e : System.Windows.RoutedEventArgs) : void
	+ InitializeComponent() : void
	- _CreateDelegate(delegateType : System.Type, handler : string) : System.Delegate
}
System.Windows.IWindowService <|.. BleakwindBuffet.PointOfSale.CashDrawerWindow
System.Windows.Window <|-- BleakwindBuffet.PointOfSale.CashDrawerWindow

class BleakwindBuffet.PointOfSale.ComboControl {
	- entree : System.Windows.Controls.ComboBox
	- side : System.Windows.Controls.ComboBox
	- drink : System.Windows.Controls.ComboBox
	- _contentLoaded : bool
	- entree_SelectionChanged(sender : object, e : System.Windows.Controls.SelectionChangedEventArgs) : void
	- side_SelectionChanged(sender : object, e : System.Windows.Controls.SelectionChangedEventArgs) : void
	- drink_SelectionChanged(sender : object, e : System.Windows.Controls.SelectionChangedEventArgs) : void
	+ InitializeComponent() : void
}

class BleakwindBuffet.PointOfSale.CurrencyControl {
	- plusBtn : System.Windows.Controls.Button
	- minusBtn : System.Windows.Controls.Button
	- _contentLoaded : bool
	+ {static} LabelProperty : System.Windows.DependencyProperty
	+ {static} ChangeQuantityProperty : System.Windows.DependencyProperty
	+ {static} CustomerQuantityProperty : System.Windows.DependencyProperty
	+ Label : string <<get>> <<set>>
	+ ChangeQuantity : int <<get>> <<set>>
	+ CustomerQuantity : int <<get>> <<set>>
	- plusBtn_Click(sender : object, e : System.Windows.RoutedEventArgs) : void
	- minusBtn_Click(sender : object, e : System.Windows.RoutedEventArgs) : void
	+ InitializeComponent() : void
}

class BleakwindBuffet.PointOfSale.LessThanOrEqualZeroConverter {
	+ Convert(value : object, targetType : System.Type, parameter : object, culture : System.Globalization.CultureInfo) : object
	+ ConvertBack(value : object, targetType : System.Type, parameter : object, culture : System.Globalization.CultureInfo) : object
}
System.Windows.Data.IValueConverter <|.. BleakwindBuffet.PointOfSale.LessThanOrEqualZeroConverter

class BleakwindBuffet.PointOfSale.MainWindow {
	- payCashBtn : System.Windows.Controls.Button
	- payCardBtn : System.Windows.Controls.Button
	- cancelOrderBtn : System.Windows.Controls.Button
	- customizationControl : System.Windows.Controls.ContentControl
	- orderItems : System.Windows.Controls.ListView
	- _contentLoaded : bool
	- Order : BleakwindBuffet.Data.Order
	- menuItem_Click(sender : object, e : System.Windows.RoutedEventArgs) : void
	- cancelOrderBtn_Click(sender : object, e : System.Windows.RoutedEventArgs) : void
	- orderControl_RemoveClicked(sender : object, e : System.Windows.RoutedEventArgs) : void
	- payCardBtn_Click(sender : object, e : System.Windows.RoutedEventArgs) : void
	- payCashBtn_Click(sender : object, e : System.Windows.RoutedEventArgs) : void
	+ InitializeComponent() : void
}
System.Windows.IWindowService <|.. BleakwindBuffet.PointOfSale.MainWindow
System.Windows.Window <|-- BleakwindBuffet.PointOfSale.MainWindow

class BleakwindBuffet.PointOfSale.OrderItemControl {
	- _contentLoaded : bool
	+ InitializeComponent() : void
}

enum BleakwindBuffet.PointOfSale.PaymentMethod {
	Cash
	CreditDebit
}

class BleakwindBuffet.PointOfSale.ReceiptPrinter <<static>> {
	+ PrintReceipt(order : BleakwindBuffet.Data.Order, paymentMethod : BleakwindBuffet.PointOfSale.PaymentMethod, cashGiven : decimal) : void
	- FormatLine(s : string, length : int) : string
}

class BleakwindBuffet.PointOfSale.Sides.DragonbornWaffleFriesControl {
	- _contentLoaded : bool
	+ InitializeComponent() : void
}

class BleakwindBuffet.PointOfSale.Sides.FriedMiraakControl {
	- _contentLoaded : bool
	+ InitializeComponent() : void
}

class BleakwindBuffet.PointOfSale.Sides.MadOtarGritsControl {
	- _contentLoaded : bool
	+ InitializeComponent() : void
}

class BleakwindBuffet.PointOfSale.Sides.VokunSaladControl {
	- _contentLoaded : bool
	+ InitializeComponent() : void
}

class BleakwindBuffet.PointOfSale.Enums.SizeControl {
	- _contentLoaded : bool
	+ InitializeComponent() : void
}

class BleakwindBuffet.PointOfSale.Enums.SodaFlavorControl {
	- _contentLoaded : bool
	+ InitializeComponent() : void
}

class BleakwindBuffet.PointOfSale.Entrees.BriarheartBurgerControl {
	- _contentLoaded : bool
	+ InitializeComponent() : void
}

class BleakwindBuffet.PointOfSale.Entrees.DoubleDraugrControl {
	- _contentLoaded : bool
	+ InitializeComponent() : void
}

class BleakwindBuffet.PointOfSale.Entrees.GardenOrcOmeletteControl {
	- _contentLoaded : bool
	+ InitializeComponent() : void
}

class BleakwindBuffet.PointOfSale.Entrees.PhillyPoacherControl {
	- _contentLoaded : bool
	+ InitializeComponent() : void
}

class BleakwindBuffet.PointOfSale.Entrees.SmokehouseSkeletonControl {
	- _contentLoaded : bool
	+ InitializeComponent() : void
}

class BleakwindBuffet.PointOfSale.Entrees.ThalmorTripleControl {
	- _contentLoaded : bool
	+ InitializeComponent() : void
}

class BleakwindBuffet.PointOfSale.Entrees.ThugsTBoneControl {
	- _contentLoaded : bool
	+ InitializeComponent() : void
}

class BleakwindBuffet.PointOfSale.Drinks.AretinoAppleJuiceControl {
	- _contentLoaded : bool
	+ InitializeComponent() : void
}

class BleakwindBuffet.PointOfSale.Drinks.CandlehearthCoffeeControl {
	- _contentLoaded : bool
	+ InitializeComponent() : void
}

class BleakwindBuffet.PointOfSale.Drinks.MarkarthMilkControl {
	- _contentLoaded : bool
	+ InitializeComponent() : void
}

class BleakwindBuffet.PointOfSale.Drinks.SailorSodaControl {
	- _contentLoaded : bool
	+ InitializeComponent() : void
}

class BleakwindBuffet.PointOfSale.Drinks.WarriorWaterControl {
	- _contentLoaded : bool
	+ InitializeComponent() : void
}

BleakwindBuffet.Data.Combo "1" o-- "1" BleakwindBuffet.Data.Drinks.Drink
BleakwindBuffet.Data.Combo "1" o-- "1" BleakwindBuffet.Data.Sides.Side
BleakwindBuffet.Data.Combo "1" o-- "1" BleakwindBuffet.Data.Entrees.Entree
BleakwindBuffet.Data.Menu "1" o-- "0..*" BleakwindBuffet.Data.IOrderItem
BleakwindBuffet.Data.Order "1" o-- "0..*" BleakwindBuffet.Data.IOrderItem
BleakwindBuffet.PointOfSale.MainWindow "1" *-- "0..*" BleakwindBuffet.PointOfSale.MenuItemControl
BleakwindBuffet.PointOfSale.Order "1" *-- "0..*" BleakwindBuffet.PointOfSale.OrderItemControl
BleakwindBuffet.PointOfSale.MainWindow "1" *-- "0..1" BleakwindBuffet.PointOfSale.Sides.DragonbornWaffleFriesControl
BleakwindBuffet.PointOfSale.Sides.DragonbornWaffleFriesControl "1" *-- "1" BleakwindBuffet.PointOfSale.Enums.SizeControl
BleakwindBuffet.PointOfSale.MainWindow "1" *-- "0..1" BleakwindBuffet.PointOfSale.Sides.FriedMiraakControl
BleakwindBuffet.PointOfSale.Sides.FriedMiraakControl "1" *-- "1" BleakwindBuffet.PointOfSale.Enums.SizeControl
BleakwindBuffet.PointOfSale.MainWindow "1" *-- "0..1" BleakwindBuffet.PointOfSale.Sides.MadOtarGritsControl
BleakwindBuffet.PointOfSale.Sides.MadOtarGritsControl "1" *-- "1" BleakwindBuffet.PointOfSale.Enums.SizeControl
BleakwindBuffet.PointOfSale.MainWindow "1" *-- "0..1" BleakwindBuffet.PointOfSale.Sides.VokunSaladControl
BleakwindBuffet.PointOfSale.Sides.VokunSaladControl "1" *-- "1" BleakwindBuffet.PointOfSale.Enums.SizeControl
BleakwindBuffet.PointOfSale.MainWindow "1" *-- "0..1" BleakwindBuffet.PointOfSale.Entrees.BriarheartBurgerControl
BleakwindBuffet.PointOfSale.MainWindow "1" *-- "0..1" BleakwindBuffet.PointOfSale.Entrees.DoubleDraugrControl
BleakwindBuffet.PointOfSale.MainWindow "1" *-- "0..1" BleakwindBuffet.PointOfSale.Entrees.GardenOrcOmeletteControl
BleakwindBuffet.PointOfSale.MainWindow "1" *-- "0..1" BleakwindBuffet.PointOfSale.Entrees.PhillyPoacherControl
BleakwindBuffet.PointOfSale.MainWindow "1" *-- "0..1" BleakwindBuffet.PointOfSale.Entrees.SmokehouseSkeletonControl
BleakwindBuffet.PointOfSale.MainWindow "1" *-- "0..1" BleakwindBuffet.PointOfSale.Entrees.ThalmorTripleControl
BleakwindBuffet.PointOfSale.MainWindow "1" *-- "0..1" BleakwindBuffet.PointOfSale.Entrees.ThugsTBoneControl
BleakwindBuffet.PointOfSale.MainWindow "1" *-- "0..1" BleakwindBuffet.PointOfSale.Drinks.AretinoAppleJuiceControl
BleakwindBuffet.PointOfSale.Drinks.AretinoAppleJuiceControl "1" *-- "1" BleakwindBuffet.PointOfSale.Enums.SizeControl
BleakwindBuffet.PointOfSale.MainWindow "1" *-- "0..1" BleakwindBuffet.PointOfSale.Drinks.CandlehearthCoffeeControl
BleakwindBuffet.PointOfSale.Drinks.CandlehearthCoffeeControl "1" *-- "1" BleakwindBuffet.PointOfSale.Enums.SizeControl
BleakwindBuffet.PointOfSale.MainWindow "1" *-- "0..1" BleakwindBuffet.PointOfSale.Drinks.MarkarthMilkControl
BleakwindBuffet.PointOfSale.Drinks.MarkarthMilkControl "1" *-- "1" BleakwindBuffet.PointOfSale.Enums.SizeControl
BleakwindBuffet.PointOfSale.MainWindow "1" *-- "0..1" BleakwindBuffet.PointOfSale.Drinks.SailorSodaControl
BleakwindBuffet.PointOfSale.Drinks.SailorSodaControl "1" *-- "1" BleakwindBuffet.PointOfSale.Enums.SizeControl
BleakwindBuffet.PointOfSale.Drinks.SailorSodaControl "1" *-- "1" BleakwindBuffet.PointOfSale.Enums.SodaFlavorControl
BleakwindBuffet.PointOfSale.MainWindow "1" *-- "0..1" BleakwindBuffet.PointOfSale.Drinks.WarriorWaterControl
BleakwindBuffet.PointOfSale.Drinks.WarriorWaterControl "1" *-- "1" BleakwindBuffet.PointOfSale.Enums.SizeControl
BleakwindBuffet.PointOfSale.CashDrawerWindow "1" *-- "..*" BleakwindBuffet.PointOfSale.CurrencyControl
BleakwindBuffet.PointOfSale.MainWindow "1" *-- "0..1" BleakwindBuffet.PointOfSale.ComboControl

@enduml
